<svg width="432" height="431" viewBox="0 0 432 431" fill="none" xmlns="http://www.w3.org/2000/svg">
<path d="M280.638 420.998C285.997 419.297 291.261 417.394 296.431 415.301C296.431 415.301 375.293 338.937 412.78 302.368C416.681 293.526 420.015 284.374 422.702 274.951C296.607 404.205 357.312 342.784 280.624 420.998H280.638Z" fill="#2D5078"/>
<path d="M430.438 231.403C430.965 224.086 431.086 218.079 430.978 211.829C330.451 312.775 307.367 340.462 216.991 431C219.988 430.987 222.971 430.905 225.928 430.757C335.607 322.036 338.901 322.549 430.438 231.39V231.403Z" fill="#2D5078"/>
<path d="M428.061 179.837C427.143 174.302 426.009 168.848 424.673 163.462C335.943 252.813 355.558 232.861 324.82 264.719C313.657 289.476 294.339 309.752 270.284 322.144C241.477 352.301 237.265 356.364 167.988 425.762C170.351 426.289 172.726 426.788 175.116 427.234C311.767 290.839 277.587 329.258 428.061 179.837Z" fill="#2D5078"/>
<path d="M335.188 198.87C334.891 199.167 334.608 199.45 334.324 199.747C334.999 204.904 335.35 210.169 335.35 215.501C335.35 216.324 335.337 217.148 335.323 217.985C342.937 210.466 408.461 145.724 416.547 137.733C414.603 132.711 412.484 127.798 410.189 122.965C401.077 132.198 343.247 190.717 335.202 198.87H335.188Z" fill="#2D5078"/>
<path d="M212.764 335.332C209.997 335.265 207.27 335.116 204.556 334.86L127.423 412.25C129.299 413.1 131.203 413.91 133.106 414.693C164.383 383.416 187.926 360.076 212.75 335.319L212.764 335.332Z" fill="#2D5078"/>
<path d="M320.729 158.09C323.28 162.747 325.521 167.607 327.438 172.615C334.052 166.054 392.112 108.535 398.713 101.988C395.851 97.3847 392.827 92.903 389.641 88.5428C389.209 88.9748 388.777 89.4203 388.332 89.8657C380.961 97.3037 328.328 150.423 320.729 158.09Z" fill="#2D5078"/>
<path d="M167.866 325.505C166.057 324.722 164.275 323.899 162.521 323.022C161.454 324.102 102.882 382.998 93.041 392.839C94.4449 393.811 95.8623 394.769 97.2932 395.714C121.51 371.497 143.568 349.601 167.866 325.505Z" fill="#2D5078"/>
<path d="M296.122 126.825C300.388 130.699 304.37 134.884 308.042 139.338C349.281 98.2203 343.004 104.47 375.307 72.0456C375.483 71.8701 375.658 71.6946 375.834 71.5191C371.987 67.2399 367.977 63.1227 363.806 59.1675C363.577 59.397 363.347 59.6265 363.104 59.8695C330.612 92.2537 336.349 86.4896 296.108 126.838L296.122 126.825Z" fill="#2D5078"/>
<path d="M134.456 303.797C133.376 302.811 132.323 301.799 131.271 300.76C130.177 301.826 109.699 322.304 63.6133 368.39C64.6527 369.429 65.7057 370.455 66.7721 371.481C70.5518 367.701 133.552 304.702 134.443 303.784L134.456 303.797Z" fill="#2D5078"/>
<path d="M262.197 105.104C268.393 107.723 274.333 110.869 279.949 114.446C311.496 82.6286 327.384 66.6727 345.999 47.936C346.769 47.1665 347.511 46.424 348.227 45.6951C343.313 41.8479 338.224 38.2167 332.986 34.8149C332.973 34.8284 332.946 34.8553 332.932 34.8688C296.053 71.5323 305.637 62.0154 262.211 105.091L262.197 105.104Z" fill="#2D5078"/>
<path d="M110.145 272.683C109.686 271.833 109.227 270.969 108.781 270.105L39.0586 339.274C39.747 340.259 40.4625 341.245 41.1644 342.217C41.7854 341.596 110.131 272.683 110.131 272.683H110.145Z" fill="#2D5078"/>
<path d="M216.247 95.6688C225.237 95.7228 233.985 96.7622 242.395 98.6926C243.164 97.9096 315.573 24.7448 315.668 24.6503C309.566 21.4375 303.289 18.5082 296.85 15.8894C282.46 30.1309 223.901 88.0823 216.247 95.6688Z" fill="#2D5078"/>
<path d="M96.5643 230.31C96.5373 230.121 96.5239 229.945 96.4969 229.756C71.6316 253.933 19.5117 305.257 19.5117 305.257C19.8897 306.066 20.2677 306.89 20.6457 307.7C32.0119 296.05 65.3815 262.37 96.5508 230.31H96.5643Z" fill="#2D5078"/>
<path d="M182.622 74.9213C101.83 154.836 90.6389 162.085 45.5791 208.143L64.1133 226.678C78.0443 213.057 90.9494 199.787 97.8069 192.768C106.73 146.304 142.475 109.371 188.318 98.7472C208.837 78.0127 222.417 64.365 277.533 9.07292C269.974 6.80508 262.252 4.9287 254.369 3.4978C199.495 58.169 201.588 56.0766 182.608 74.9078L182.622 74.9213Z" fill="#2D5078"/>
<path d="M49.5876 222.75L49.52 222.683C48.4536 223.803 6.76852 264.638 5.85059 265.556C5.95858 266.028 6.08007 266.501 6.18806 266.973C6.63353 266.528 49.0611 223.263 49.5876 222.764V222.75Z" fill="#2D5078"/>
<path d="M232 0.622716C221.795 -0.14673 212.319 -0.173636 202.856 0.379825C55.7702 146.75 70.0792 128.796 0.640106 198.721C0.140641 205.174 -0.0348893 210.871 0.00560791 216.878L9.81945 226.691C94.0805 143.065 61.1158 172.344 232 0.636228V0.622716Z" fill="#2D5078"/>
<path d="M174.63 3.8901C159.646 6.7654 145.216 11.1795 131.514 16.9841C20.6734 126.299 69.8099 77.2979 18.932 127.055C11.575 143.376 6.20244 160.79 3.09766 178.973C99.4134 80.6727 41.6239 138.368 174.63 3.87659V3.8901Z" fill="#2D5078"/>
</svg>
