<svg width="881" height="873" viewBox="0 0 881 873" fill="none" xmlns="http://www.w3.org/2000/svg">
<path d="M147.795 546.902V462.273C146.209 476.17 145.366 490.269 145.366 504.571C145.366 518.872 146.209 533.005 147.795 546.868V546.902Z" fill="black" fill-opacity="0.04"/>
<path d="M212.725 716.735C215.524 720.715 218.459 724.628 221.427 728.473L221.427 280.672C218.459 284.517 215.558 288.43 212.725 292.41L212.725 716.702V716.735Z" fill="black" fill-opacity="0.04"/>
<path d="M280.085 789.017C284.976 793.031 289.934 796.876 295.027 800.62V208.521C289.934 212.265 284.976 216.144 280.085 220.124V789.017Z" fill="black" fill-opacity="0.04"/>
<path d="M347.444 832.896C354.393 836.404 361.442 839.709 368.627 842.778V166.387C361.442 169.457 354.359 172.763 347.444 176.271V832.929V832.896Z" fill="black" fill-opacity="0.04"/>
<path d="M414.805 858.943C423.811 861.439 432.985 863.598 442.261 865.385V143.762C432.985 145.584 423.844 147.709 414.805 150.205V858.909V858.943Z" fill="black" fill-opacity="0.04"/>
<path d="M482.156 138.227V870.914C492.343 871.757 502.631 872.229 513.019 872.229C513.964 872.229 514.909 872.229 515.853 872.195V136.979C514.909 136.979 513.964 136.945 513.019 136.945C502.631 136.945 492.343 137.384 482.156 138.261V138.227Z" fill="black" fill-opacity="0.04"/>
<path d="M549.516 870.442C563.075 869.093 576.398 867.036 589.452 864.27V144.94C576.365 142.174 563.041 140.083 549.516 138.767V870.476V870.442Z" fill="black" fill-opacity="0.04"/>
<path d="M616.875 857.323C632.762 852.668 648.176 846.968 663.085 840.289V168.856C648.176 162.178 632.762 156.478 616.875 151.823V857.323Z" fill="black" fill-opacity="0.04"/>
<path d="M684.235 829.968C702.719 820.22 720.259 808.955 736.686 796.339V212.808C720.226 200.192 702.686 188.927 684.235 179.179V829.968Z" fill="black" fill-opacity="0.04"/>
<path d="M751.596 224.878V784.293C773.554 765.539 793.286 744.255 810.32 720.88V288.291C793.286 264.916 773.554 243.632 751.596 224.878Z" fill="black" fill-opacity="0.04"/>
<path d="M818.955 300.674V708.505C857.913 650.152 880.647 580.027 880.647 504.606C880.647 429.186 857.913 359.061 818.955 300.707V300.674Z" fill="black" fill-opacity="0.04"/>
<path d="M515.851 325.36V409.988C517.436 396.092 518.279 381.993 518.279 367.692C518.279 353.39 517.436 339.257 515.851 325.394V325.36Z" fill="black" fill-opacity="0.04"/>
<path d="M450.919 155.5C448.12 151.52 445.185 147.608 442.217 143.762V591.564C445.185 587.719 448.086 583.806 450.919 579.826V155.534V155.5Z" fill="black" fill-opacity="0.04"/>
<path d="M383.568 83.2112C378.677 79.1974 373.719 75.3519 368.626 71.6078V663.707C373.719 659.963 378.677 656.084 383.568 652.104V83.2112Z" fill="black" fill-opacity="0.04"/>
<path d="M316.203 39.3288C309.255 35.8209 302.205 32.5151 295.021 29.4457V705.837C302.205 702.768 309.288 699.462 316.203 695.954V39.295V39.3288Z" fill="black" fill-opacity="0.04"/>
<path d="M248.85 13.2921C239.844 10.7961 230.669 8.63725 221.394 6.84955L221.394 728.473C230.669 726.652 239.81 724.526 248.85 722.03L248.85 13.3259V13.2921Z" fill="black" fill-opacity="0.04"/>
<path d="M181.493 734.002L181.493 1.31553C171.306 0.472272 161.018 0 150.63 0C149.685 0 148.74 3.29404e-05 147.796 0.0337631L147.796 735.251C148.74 735.251 149.685 735.284 150.63 735.284C161.018 735.284 171.306 734.845 181.493 733.968V734.002Z" fill="black" fill-opacity="0.04"/>
<path d="M114.127 1.82386C100.567 3.17307 87.244 5.23046 74.1904 7.99634L74.1904 727.326C87.2777 730.092 100.601 732.183 114.127 733.499L114.127 1.7901V1.82386Z" fill="black" fill-opacity="0.04"/>
<path d="M46.7668 14.9104C30.8799 19.5652 15.4654 25.2653 0.556641 31.9439L0.556641 703.376C15.4654 710.055 30.8799 715.756 46.7668 720.41L46.7668 14.9104Z" fill="black" fill-opacity="0.04"/>
</svg>
