<svg width="29" height="33" viewBox="0 0 29 33" fill="none" xmlns="http://www.w3.org/2000/svg">
<path d="M4.42687 26.0717C-0.0374657 19.4833 3.11316 14.3377 3.11316 14.3377C2.38115 14.121 0.0400391 15.6553 0.0400391 15.6553C1.35678 10.8298 8.59917 6.73013 8.59917 6.73013C7.79521 6.43591 5.52707 7.02031 5.52707 7.02031C11.4522 1.31775 18.6955 3.43828 18.6955 3.43828C18.914 2.19367 22.5004 0 22.5004 0C22.1336 0.363314 21.9856 2.34128 21.9856 2.34128C22.3515 1.6819 23.5239 1.0237 23.5239 1.0237C22.8661 2.55799 23.5239 5.84933 23.5239 5.84933C25.4258 7.75282 27.5466 14.3379 27.5466 14.3379L28.3536 15.508C29.3782 16.9732 29.0016 19.2768 27.9868 19.8232C24.1838 21.8763 23.816 18.1418 23.816 18.1418C20.6699 17.776 18.3286 14.2632 18.3286 14.2632C14.0869 16.4574 16.4493 22.6473 18.2809 25.0243C20.6341 28.0711 18.911 33 18.911 33C18.911 33 8.83505 32.5827 4.42687 26.0717Z" fill="white"/>
</svg>
