<svg width="96" height="115" viewBox="0 0 96 115" fill="none" xmlns="http://www.w3.org/2000/svg">
<path d="M95.1919 50.8037C95.1021 51.4265 94.9763 52.0493 94.9224 52.6722C94.4553 57.8705 93.018 62.7994 90.8739 67.5426C89.1551 71.3395 86.9512 74.831 84.2981 78.0231C80.6569 82.401 76.3569 86.0123 71.4101 88.863C67.2358 91.2645 62.81 93.0193 58.1028 94.0014C55.8809 94.4626 53.6231 94.786 51.3653 94.9716C49.1853 95.1513 46.9754 95.2052 44.7835 95.0974C41.3938 94.9297 38.046 94.3847 34.7701 93.4505C31.7218 92.5821 28.7573 91.4921 25.9485 90.0308C22.1995 88.0784 18.7379 85.7128 15.5937 82.8561C11.5692 79.1969 8.29927 74.9808 5.6941 70.2136C3.11889 65.5004 1.47793 60.4757 0.579602 55.2055C-0.0132969 51.708 -0.10313 48.1446 0.0945029 44.6052C0.346036 40.1015 1.25635 35.6997 2.7895 31.4416C4.62808 26.3391 7.2572 21.6857 10.6709 17.4755C13.7432 13.6906 17.3185 10.4626 21.379 7.78554C26.5354 4.37787 32.159 2.06616 38.2257 0.904321C40.1302 0.538999 42.0765 0.395266 43.999 0.143733C44.1307 0.125766 44.2565 0.047911 44.3882 0C46.5383 0 48.6943 0 50.8443 0C50.976 0.047911 51.1018 0.131755 51.2335 0.143733C54.204 0.287466 57.1206 0.808499 59.9893 1.58106C64.6067 2.82675 68.9426 4.69528 73.0031 7.25253C77.2792 9.94154 81.0282 13.2115 84.2502 17.0803C86.9093 20.2724 89.1192 23.7579 90.844 27.5488C93.006 32.31 94.4553 37.2568 94.9224 42.4791C94.9763 43.108 95.1021 43.7248 95.1919 44.3477V50.8037ZM49.4548 93.5882C61.3308 93.3187 72.9312 88.2342 82.1002 77.9393C89.4546 69.6866 93.3413 59.9247 93.5929 48.8992C94.2217 21.9912 72.8654 2.11407 48.8679 1.59903C34.6324 1.2936 22.6366 6.58178 13.1323 17.212C5.75399 25.4707 1.89716 35.2685 1.63364 46.324C0.998824 72.9985 22.469 93.5703 49.4548 93.5942V93.5882Z" fill="#2A4B71"/>
<path d="M47.5804 89.0668C24.4873 88.8333 6.16136 70.687 6.16735 47.3663C6.16735 36.8019 9.81458 27.4473 16.9893 19.6318C25.2659 10.6185 35.6746 6.12085 47.8619 6.13882C58.3844 6.15679 67.7151 9.76209 75.5066 16.9008C84.5558 25.1954 89.0834 35.6341 89.0534 47.8633C89.0235 58.3978 85.3882 67.7225 78.2375 75.526C69.2243 85.3657 58.0909 88.8991 47.5804 89.0668ZM47.1972 87.354C62.0436 87.8032 75.7761 78.7001 81.6033 68.1117C70.8772 69.2796 61.5884 66.1893 53.6951 58.5355C55.9289 69.2676 53.8748 78.7959 47.1972 87.354ZM48.0715 7.74983C40.9328 7.69593 34.2911 9.31293 28.2244 12.8344C21.7863 16.5714 14.5338 23.8659 13.6594 27.04C24.3735 25.8782 33.6443 28.9684 41.5377 36.6282C39.2918 25.9021 41.352 16.3558 48.0715 7.74983ZM12.9887 67.0757C16.073 72.8729 22.0678 79.6343 31.0332 83.7727C36.0099 86.0724 41.2502 87.2582 46.8797 87.4079C43.6577 83.1199 41.5916 78.5264 40.6094 73.4239C39.6332 68.3513 39.9027 63.3506 41.2742 58.2361C33.1772 65.7162 23.7866 68.513 12.9887 67.0697V67.0757ZM54.0125 36.8737C62.0556 29.4416 71.4641 26.6388 82.2381 28.0761C79.2976 22.4765 73.3446 15.8707 65.2357 11.8881C59.9475 9.28897 54.3778 7.94147 48.3949 7.74384C54.8509 16.6373 56.6895 26.2734 54.0125 36.8797V36.8737ZM35.1475 47.3782C24.661 44.0963 17.4923 37.4307 13.384 27.3035C9.98227 32.969 8.17363 39.0058 7.83226 45.4319C7.431 52.9599 9.05998 60.0807 12.7611 66.7942C17.133 56.7688 24.5652 50.3487 35.1475 47.3782ZM60.2529 47.7975C65.2237 49.3246 69.6075 51.7741 73.3925 55.2656C77.1775 58.7571 79.9204 62.9553 81.8368 67.8902C85.2625 62.2007 87.0591 56.1579 87.4065 49.7319C87.8137 42.2039 86.1788 35.0771 82.4776 28.3695C78.0998 38.377 70.6796 44.797 60.2529 47.7975ZM46.9037 84.7848C52.7489 77.6161 56.1984 62.7577 48.7183 51.3069C48.0536 51.3069 47.3948 51.289 46.736 51.3189C46.5623 51.3249 46.3048 51.4028 46.227 51.5345C45.125 53.3611 43.9512 55.1518 43.3044 57.218C42.5737 59.5716 41.9868 61.9492 41.7892 64.4166C41.5856 66.9379 41.5856 69.4473 41.9868 71.9506C42.436 74.7654 43.1966 77.5023 44.4183 80.0775C45.1669 81.6586 46.0473 83.1738 46.9037 84.7848ZM48.341 10.325C41.5796 19.0628 39.7111 33.526 46.5084 43.8508C47.1792 43.8508 47.82 43.8628 48.4608 43.8448C48.6345 43.8448 48.886 43.7789 48.9639 43.6591C49.6706 42.5332 50.4731 41.4373 51.0121 40.2335C53.2998 35.1609 54.0125 29.8129 53.4076 24.3091C53.0842 21.3386 52.3416 18.44 51.0899 15.715C50.2695 13.9304 49.3112 12.2115 48.341 10.325ZM79.5012 66.5666C78.0758 63.4284 76.2312 60.6436 73.9315 58.1702C70.8772 54.8823 67.2599 52.355 63.1156 50.6182C59.4804 49.0911 55.7133 48.1927 51.7307 48.4922C51.5511 48.5042 51.3295 48.6718 51.2217 48.8276C50.9402 49.2588 50.6947 49.7199 50.4731 50.187C50.3832 50.3727 50.2934 50.6601 50.3773 50.8099C50.9642 51.9298 51.4972 53.0916 52.2278 54.1097C53.7071 56.1579 55.4319 57.9846 57.4022 59.5956C61.1512 62.6619 65.3435 64.8119 70.0567 65.8959C71.7096 66.2732 73.4165 66.4648 75.1053 66.6385C76.381 66.7702 77.6746 66.7463 78.9562 66.7702C79.1239 66.7702 79.2916 66.6505 79.4952 66.5666H79.5012ZM15.6897 28.4953C17.2049 31.8251 19.1153 34.6818 21.5109 37.1971C24.4454 40.2874 27.877 42.7069 31.7997 44.3898C35.5368 45.9948 39.3996 46.965 43.508 46.6596C43.6877 46.6476 43.9093 46.4799 44.0111 46.3182C44.2926 45.887 44.5321 45.4259 44.7657 44.9587C44.8495 44.791 44.9573 44.5275 44.8855 44.4018C44.2387 43.21 43.6278 41.9883 42.8612 40.8803C41.4179 38.7962 39.6332 37.0175 37.6689 35.4125C35.3871 33.5439 32.8777 32.0347 30.1768 30.8729C25.8827 29.0283 21.3731 28.2078 16.6958 28.3755C16.3964 28.3875 16.1029 28.4414 15.6837 28.4893L15.6897 28.4953ZM44.8615 50.5044C44.5441 49.8337 44.2626 49.2168 43.9452 48.612C43.8853 48.4922 43.6997 48.3724 43.5619 48.3604C42.2803 48.3005 40.9627 48.061 39.717 48.2646C37.3934 48.6479 35.0577 49.151 32.8179 49.8696C28.6795 51.1932 25.0862 53.5109 21.9001 56.4454C19.7142 58.4517 17.8876 60.7694 16.3724 63.3206C15.9412 64.0453 15.5579 64.7999 15.1387 65.5725C22.6607 66.9559 38.0282 63.6081 44.8615 50.5044ZM80.0641 29.5793C72.5062 28.1959 57.1507 31.6035 50.3473 44.6713C50.6647 45.3061 50.9402 45.905 51.2576 46.4799C51.3415 46.6296 51.5631 46.7913 51.7307 46.7973C53.5034 46.8273 55.2642 47.0429 57.0549 46.7075C60.9237 45.9888 64.5769 44.7252 67.9606 42.7129C70.9311 40.9462 73.5542 38.7602 75.7881 36.1191C77.4709 34.1368 78.9023 31.9808 80.0641 29.5793Z" fill="#2A4B71"/>
<path d="M47.1973 87.3479C53.8749 78.7958 55.935 69.2615 53.6952 58.5294C61.5826 66.1832 70.8773 69.2735 81.6034 68.1057C75.7762 78.688 62.0437 87.7971 47.1973 87.3479ZM68.1224 78.6042C70.7875 76.2026 73.3267 73.9149 76.0038 71.5073C72.5362 70.3754 69.3022 69.3214 65.9365 68.2254C66.6731 71.7229 67.3738 75.0647 68.1224 78.6042ZM61.4508 82.0118C58.9654 79.4067 56.5878 76.9153 54.1264 74.3401C53.1143 77.7897 52.1501 81.0836 51.1439 84.5152C54.5995 83.6767 57.9413 82.8682 61.4508 82.0118ZM55.0068 60.8112C55.1265 63.5661 55.2523 66.4887 55.3781 69.4352C57.8275 68.5967 60.1392 67.3211 62.1515 65.6802C59.6721 63.9913 57.2526 62.3384 55.0068 60.8052V60.8112Z" fill="white"/>
<path d="M12.9887 67.0757C23.7866 68.513 33.177 65.7163 41.274 58.2422C39.9025 63.3567 39.633 68.3574 40.6092 73.43C41.5914 78.5385 43.6576 83.132 46.8796 87.414C41.256 87.2583 36.0098 86.0725 31.033 83.7788C22.0677 79.6345 16.0728 72.879 12.9885 67.0818L12.9887 67.0757ZM40.8248 84.0363C40.8847 83.9704 40.9386 83.9045 40.9985 83.8387C40.3038 80.5148 39.6031 77.191 38.8784 73.7234C36.2014 76.125 33.6442 78.4247 30.9791 80.8203C34.4047 81.9402 37.6148 82.9882 40.8248 84.0363ZM17.3484 69.112C19.8398 71.7232 22.2054 74.2026 24.6728 76.7897C25.6909 73.3042 26.6551 70.0223 27.6553 66.6087C24.1638 67.4591 20.8639 68.2616 17.3484 69.118V69.112ZM39.1839 69.118C39.3935 66.2314 39.6091 63.3447 39.8067 60.6018C37.4231 62.105 34.9917 63.6382 32.5542 65.1713C33.3028 66.2493 37.6807 68.8545 39.1779 69.118H39.1839Z" fill="white"/>
<path d="M54.0125 36.8737C56.6895 26.2674 54.8509 16.6314 48.3949 7.73795C54.3778 7.93558 59.9474 9.28308 65.2356 11.8823C73.3445 15.8708 79.2975 22.4706 82.238 28.0702C71.458 26.6329 62.0555 29.4357 54.0124 36.8679L54.0125 36.8737ZM54.1801 11.0438C54.9287 14.5832 55.6354 17.937 56.3661 21.4225C59.0131 19.045 61.5704 16.7512 64.2534 14.3437C60.8098 13.2118 57.5818 12.1577 54.1801 11.0378V11.0438ZM70.5537 18.3622C69.5356 21.8597 68.5774 25.1476 67.5832 28.5553C71.0867 27.7049 74.3986 26.8964 77.8841 26.0459C75.3927 23.4348 73.0331 20.9614 70.5537 18.3622ZM62.7382 29.9387C60.7379 28.2439 58.5041 26.8604 56.0546 25.9801C55.833 28.9446 55.6234 31.8192 55.4198 34.5681C57.7914 33.0709 60.2109 31.5378 62.7382 29.9387Z" fill="white"/>
<path d="M35.1412 47.3723C24.5589 50.3487 17.1267 56.7628 12.7548 66.7882C9.05369 60.0747 7.42471 52.9539 7.82597 45.4259C8.16733 38.9998 9.97598 32.963 13.3777 27.2975C17.492 37.4247 24.6547 44.0904 35.1412 47.3723ZM10.6827 49.8576C10.6407 50.0553 10.6168 50.1032 10.6228 50.1451C11.2756 53.3312 11.9224 56.5233 12.5871 59.7094C12.665 60.0926 12.9045 60.0747 13.1621 59.8411C13.6172 59.4219 14.0724 59.0027 14.5335 58.5894C16.0247 57.2599 17.528 55.9483 18.9952 54.5949C19.5043 54.1277 19.9175 53.5588 20.3846 53.0258C17.1986 51.9837 13.9646 50.9237 10.6827 49.8517V49.8576ZM21.1931 39.8023C18.7257 37.2151 16.3541 34.7357 13.8687 32.1306C12.8506 35.6101 11.8924 38.904 10.8983 42.3057C14.3958 41.4553 17.6897 40.6527 21.1931 39.8023ZM32.4702 47.3423C30.0148 46.0607 27.4216 44.7012 24.8044 43.3358C24.3193 45.911 24.2654 48.5281 24.6787 51.0674C27.3617 49.7858 30.0028 48.5161 32.4702 47.3363V47.3423Z" fill="white"/>
<path d="M60.253 47.7916C70.6796 44.7912 78.0998 38.3711 82.4777 28.3637C86.1788 35.0772 87.8078 42.198 87.4065 49.726C87.0592 56.1461 85.2685 62.1889 81.8369 67.8843C79.9264 62.9494 77.1775 58.7512 73.3926 55.2597C69.6076 51.7682 65.2237 49.3188 60.253 47.7916ZM84.5977 45.3122C84.5977 45.0547 84.6217 44.9169 84.5977 44.7852C83.9509 41.6889 83.3041 38.5927 82.6514 35.4964C82.5376 34.9634 82.286 35.1131 82.0106 35.3647C81.4716 35.8677 80.9326 36.3768 80.3816 36.8679C79.3695 37.7722 78.3454 38.6526 77.3392 39.5629C76.4648 40.3534 75.6084 41.1619 74.6502 42.0483C78.01 43.1502 81.2559 44.2102 84.5977 45.3062V45.3122ZM84.3462 52.8522C80.8427 53.7026 77.5309 54.5111 74.0334 55.3555C76.5307 57.9607 78.8963 60.4401 81.3697 63.0213C82.3878 59.5418 83.3461 56.2718 84.3462 52.8462V52.8522ZM62.7743 47.8036C65.2237 49.0852 67.8169 50.4387 70.4281 51.8101C70.9072 49.2349 70.9611 46.6238 70.5478 44.0785C67.8768 45.3601 65.2357 46.6238 62.7743 47.8036Z" fill="white"/>
<path d="M68.1225 78.6097C67.3739 75.0703 66.6732 71.7285 65.9366 68.231C69.3023 69.327 72.5363 70.381 76.0039 71.5129C73.3268 73.9204 70.7875 76.2082 68.1225 78.6097ZM68.5956 77.0347C70.5839 75.25 72.4285 73.591 74.3749 71.8423C71.8416 71.0158 69.47 70.2373 66.9846 69.4228C67.5236 71.98 68.0446 74.4295 68.5956 77.0347Z" fill="#2A4B71"/>
<path d="M61.4506 82.0179C57.9411 82.8684 54.6053 83.6769 51.1438 84.5213C52.1499 81.0897 53.1141 77.8018 54.1262 74.3462C56.5877 76.9214 58.9652 79.4128 61.4506 82.0179ZM59.8516 81.5867C58.031 79.6703 56.3241 77.8616 54.5035 75.9392C53.7549 78.4725 53.0482 80.8681 52.2996 83.4133C54.8808 82.7905 57.3003 82.2036 59.8516 81.5867Z" fill="#2A4B71"/>
<path d="M55.0067 60.8167C57.2585 62.3499 59.678 64.0028 62.1514 65.6917C60.1391 67.3326 57.8274 68.6083 55.378 69.4467C55.2522 66.4942 55.1264 63.5776 55.0067 60.8227V60.8167ZM60.6721 65.8055C59.0372 64.7215 57.54 63.7393 56.1086 62.7871V68.3448C57.7256 67.4464 59.151 66.6559 60.6721 65.8055Z" fill="#2A4B71"/>
<path d="M41.1123 20.8173C38.6389 18.2241 36.2733 15.7447 33.7879 13.1395C37.2614 12.2951 40.6032 11.4866 44.1007 10.6362C43.0946 14.0678 42.1244 17.3677 41.1183 20.8173H41.1123ZM35.3869 13.5707C37.1955 15.4812 38.9263 17.3018 40.747 19.2183C41.4956 16.661 42.1963 14.2714 42.9329 11.7441C40.3577 12.367 37.9382 12.9539 35.3869 13.5707Z" fill="#2A4B71"/>
<path d="M19.2288 23.6321C21.8938 21.2366 24.4271 18.9608 27.1161 16.5413C27.8587 20.0747 28.5714 23.4345 29.308 26.926C25.9483 25.8241 22.6903 24.764 19.2288 23.6321ZM26.643 18.1104C24.6487 19.9011 22.8101 21.56 20.8577 23.3207C23.391 24.1472 25.7626 24.9197 28.248 25.7282C27.709 23.171 27.194 20.7215 26.649 18.1104H26.643Z" fill="#2A4B71"/>
<path d="M39.8544 25.7041C39.9802 28.6746 40.106 31.5792 40.2257 34.3341C37.9679 32.7949 35.5544 31.148 33.069 29.4591C35.0753 27.8241 37.387 26.5545 39.8484 25.7041H39.8544ZM39.1418 32.3757V26.7941C37.5008 27.7104 36.0575 28.5248 34.5662 29.3573C36.1892 30.4293 37.6685 31.4055 39.1418 32.3757Z" fill="#2A4B71"/>
<path d="M40.8248 84.0363C37.6148 82.9882 34.3988 81.9402 30.9791 80.8203C33.6502 78.4247 36.2014 76.125 38.8784 73.7234C39.6031 77.191 40.3038 80.5148 40.9985 83.8387C40.9386 83.9045 40.8847 83.9704 40.8248 84.0363ZM38.3992 75.3041C36.3869 77.1068 34.5363 78.7597 32.6019 80.4905C35.0933 81.305 37.4889 82.0895 40.0042 82.91C39.4652 80.3468 38.9501 77.9273 38.3992 75.3041Z" fill="#2A4B71"/>
<path d="M17.3484 69.112C20.8639 68.2556 24.1641 67.4529 27.6556 66.6025C26.6555 70.0162 25.6913 73.3041 24.6732 76.7836C22.2057 74.1964 19.8401 71.717 17.3488 69.1059L17.3484 69.112ZM24.3078 75.1726C25.0624 72.6213 25.7691 70.2138 26.5117 67.7045C23.9784 68.3213 21.547 68.9142 18.9478 69.549C20.7804 71.4715 22.4992 73.2741 24.3078 75.1726Z" fill="#2A4B71"/>
<path d="M39.184 69.1236C37.6808 68.8601 33.3029 66.2489 32.5603 65.1769C34.9917 63.6437 37.4292 62.1046 39.8128 60.6074C39.6092 63.3503 39.3996 66.2429 39.19 69.1236H39.184ZM33.9736 65.3985C35.5547 66.3208 36.9681 67.1472 38.4473 68.0096C38.5491 66.0273 38.645 64.2486 38.7348 62.446C37.1777 63.4102 35.6745 64.3385 33.9736 65.3985Z" fill="#2A4B71"/>
<path d="M54.1801 11.0378C57.5818 12.1518 60.8098 13.2118 64.2534 14.3437C61.5704 16.7512 59.0191 19.0449 56.3661 21.4225C55.6294 17.931 54.9227 14.5832 54.1801 11.0438V11.0378ZM62.6362 14.661C60.1329 13.8406 57.7373 13.056 55.228 12.2356C55.773 14.7928 56.294 17.2303 56.851 19.8414C58.8512 18.0508 60.6898 16.4038 62.6362 14.661Z" fill="#2A4B71"/>
<path d="M70.5534 18.3556C73.0328 20.9547 75.3924 23.4281 77.8838 26.0393C74.3982 26.8897 71.0864 27.6922 67.5829 28.5486C68.577 25.141 69.5353 21.8531 70.5534 18.3556ZM76.2907 25.6081C74.4641 23.6976 72.7333 21.877 70.9247 19.9786C70.1761 22.5238 69.4694 24.9314 68.7328 27.4407C71.2421 26.8298 73.6616 26.2429 76.2907 25.6081Z" fill="#2A4B71"/>
<path d="M62.7381 29.9321C60.2108 31.5311 57.7853 33.0643 55.4197 34.5615C55.6233 31.8126 55.8329 28.938 56.0545 25.9735C58.504 26.8538 60.7378 28.2373 62.7381 29.9321ZM56.7911 27.1293C56.6893 29.0997 56.5935 30.8784 56.4977 32.693C58.0368 31.7408 59.552 30.8065 61.2409 29.7584C59.7017 28.8481 58.2884 28.0157 56.7851 27.1293H56.7911Z" fill="#2A4B71"/>
<path d="M10.6827 49.8576C13.9646 50.9297 17.1986 51.9896 20.3847 53.0317C19.9176 53.5647 19.4983 54.1336 18.9953 54.6008C17.528 55.9542 16.0188 57.2658 14.5336 58.5953C14.0724 59.0086 13.6173 59.4278 13.1621 59.847C12.9106 60.0806 12.671 60.0985 12.5872 59.7153C11.9224 56.5292 11.2756 53.3431 10.6228 50.151C10.6168 50.1091 10.6408 50.0612 10.6827 49.8636L10.6827 49.8576ZM11.599 51.0134C12.144 53.6186 12.665 56.074 13.198 58.6253C15.1564 56.8705 17.0129 55.1996 18.9773 53.4389C16.4919 52.6244 14.1383 51.8459 11.593 51.0134H11.599Z" fill="#2A4B71"/>
<path d="M21.1931 39.8023C17.6897 40.6527 14.3898 41.4553 10.8983 42.3057C11.8924 38.904 12.8506 35.6101 13.8687 32.1306C16.3601 34.7357 18.7257 37.2151 21.1931 39.8023ZM19.6182 39.3766C17.7797 37.4482 16.0489 35.6396 14.2342 33.7411C13.5036 36.2445 12.8029 38.628 12.0543 41.1913C14.6175 40.5744 17.031 39.9935 19.6182 39.3766Z" fill="#2A4B71"/>
<path d="M32.4702 47.3423C30.0028 48.5221 27.3618 49.7855 24.6788 51.0732C24.2656 48.5339 24.3195 45.9167 24.8046 43.3415C27.4217 44.707 30.0149 46.0605 32.4703 47.3481L32.4702 47.3423ZM25.3855 49.7197C27.0204 48.9052 28.6374 48.1087 30.2484 47.3061C28.6374 46.4378 27.0564 45.5873 25.3855 44.689V49.7197Z" fill="#2A4B71"/>
<path d="M84.5977 45.3122C81.2559 44.2162 78.0036 43.156 74.6499 42.054C75.6081 41.1677 76.4645 40.3532 77.3389 39.5687C78.345 38.6584 79.3751 37.778 80.3812 36.8737C80.9322 36.3826 81.4652 35.8735 82.0102 35.3705C82.2857 35.1189 82.5372 34.9632 82.651 35.5022C83.2978 38.5985 83.9506 41.6947 84.5974 44.791C84.6273 44.9227 84.5974 45.0605 84.5974 45.318L84.5977 45.3122ZM83.6452 44.1322C83.0942 41.533 82.5792 39.0776 82.0402 36.5203C80.0758 38.287 78.2133 39.9639 76.2609 41.7187C78.7702 42.5391 81.1298 43.3057 83.6452 44.1322Z" fill="#2A4B71"/>
<path d="M84.3462 52.8522C83.3461 56.2718 82.3877 59.5471 81.3696 63.0267C78.8962 60.4395 76.5246 57.9661 74.0332 55.3609C77.5307 54.5105 80.8426 53.708 84.346 52.8576L84.3462 52.8522ZM81.0042 61.4216C81.7409 58.9003 82.4416 56.5108 83.1902 53.9595C80.609 54.5823 78.1775 55.1693 75.6203 55.7861C77.4529 57.7085 79.1836 59.5172 81.0042 61.4216Z" fill="#2A4B71"/>
<path d="M62.7743 47.8036C65.2357 46.6238 67.8768 45.3601 70.5478 44.0785C70.9611 46.6178 70.9072 49.2349 70.4281 51.8101C67.8169 50.4447 65.2237 49.0852 62.7743 47.8036ZM69.8468 45.4197C68.1938 46.2402 66.5828 47.0427 64.9778 47.8392C66.5709 48.6956 68.1639 49.5521 69.8468 50.4624V45.4197Z" fill="#2A4B71"/>
<path d="M84.1611 110.024H85.6309C85.7266 110.316 85.9111 110.544 86.1846 110.708C86.458 110.872 86.8135 110.954 87.251 110.954C87.7113 110.954 88.0872 110.861 88.3789 110.674C88.6706 110.487 88.8164 110.245 88.8164 109.949C88.8164 109.516 88.4518 109.213 87.7227 109.04L86.4238 108.739C85.7129 108.571 85.1888 108.32 84.8516 107.987C84.5189 107.655 84.3525 107.213 84.3525 106.661C84.3525 106.005 84.6237 105.467 85.166 105.048C85.7083 104.624 86.401 104.412 87.2441 104.412C88.0827 104.412 88.7594 104.597 89.2744 104.966C89.7894 105.335 90.0833 105.848 90.1562 106.504H88.748C88.6797 106.226 88.5133 106.007 88.249 105.848C87.9893 105.688 87.6543 105.608 87.2441 105.608C86.8294 105.608 86.4854 105.7 86.2119 105.882C85.9385 106.06 85.8018 106.292 85.8018 106.579C85.8018 106.802 85.8975 106.987 86.0889 107.133C86.2803 107.279 86.5788 107.397 86.9844 107.488L88.2217 107.775C88.9372 107.939 89.4613 108.183 89.7939 108.507C90.1312 108.83 90.2998 109.263 90.2998 109.806C90.2998 110.498 90.0104 111.061 89.4316 111.494C88.8529 111.927 88.1146 112.144 87.2168 112.144C86.3327 112.144 85.6172 111.957 85.0703 111.583C84.528 111.205 84.2249 110.685 84.1611 110.024Z" fill="#2A4B71"/>
<path d="M76.1289 112V104.556H77.5439V105.738H77.6533C78.0407 104.854 78.7812 104.412 79.875 104.412C80.7044 104.412 81.3402 104.651 81.7822 105.13C82.2288 105.608 82.4521 106.292 82.4521 107.181V112H80.9824V107.55C80.9824 106.356 80.4469 105.759 79.376 105.759C78.8337 105.759 78.4007 105.93 78.0771 106.271C77.7581 106.609 77.5986 107.067 77.5986 107.646V112H76.1289Z" fill="#2A4B71"/>
<path d="M67.7891 109.895C67.7891 109.229 68.0283 108.707 68.5068 108.329C68.9854 107.946 69.6689 107.728 70.5576 107.673L72.5742 107.557V106.914C72.5742 106.518 72.4443 106.215 72.1846 106.005C71.9248 105.791 71.5465 105.684 71.0498 105.684C70.6396 105.684 70.2979 105.757 70.0244 105.902C69.7555 106.044 69.5801 106.246 69.498 106.511H68.0762C68.1491 105.873 68.4613 105.365 69.0127 104.986C69.5687 104.604 70.2705 104.412 71.1182 104.412C72.0479 104.412 72.7656 104.633 73.2715 105.075C73.7819 105.513 74.0371 106.126 74.0371 106.914V112H72.6221V110.954H72.5059C72.2826 111.328 71.9749 111.617 71.583 111.822C71.1956 112.023 70.7581 112.123 70.2705 112.123C69.5413 112.123 68.9443 111.92 68.4795 111.515C68.0192 111.104 67.7891 110.564 67.7891 109.895ZM69.6279 109.067C69.3864 109.245 69.2656 109.498 69.2656 109.826C69.2656 110.154 69.3932 110.414 69.6484 110.605C69.9036 110.792 70.2363 110.886 70.6465 110.886C71.1979 110.886 71.6559 110.731 72.0205 110.421C72.3896 110.111 72.5742 109.724 72.5742 109.259V108.637L70.7559 108.753C70.2454 108.785 69.8695 108.89 69.6279 109.067Z" fill="#2A4B71"/>
<path d="M64.6377 102.997C64.46 102.824 64.3711 102.61 64.3711 102.354C64.3711 102.099 64.46 101.885 64.6377 101.712C64.82 101.539 65.0479 101.452 65.3213 101.452C65.5947 101.452 65.8203 101.539 65.998 101.712C66.1803 101.885 66.2715 102.099 66.2715 102.354C66.2715 102.61 66.1803 102.824 65.998 102.997C65.8203 103.166 65.5947 103.25 65.3213 103.25C65.0479 103.25 64.82 103.166 64.6377 102.997ZM64.5898 112V104.556H66.0527V112H64.5898Z" fill="#2A4B71"/>
<path d="M55.8398 112V101.65H57.3096V105.738H57.4258C57.6217 105.333 57.9248 105.014 58.335 104.781C58.7451 104.549 59.2054 104.433 59.7158 104.433C60.6592 104.433 61.4066 104.779 61.958 105.472C62.514 106.16 62.792 107.094 62.792 108.274C62.792 109.455 62.514 110.391 61.958 111.084C61.402 111.777 60.6546 112.123 59.7158 112.123C59.1963 112.123 58.7292 112.009 58.3145 111.781C57.9043 111.553 57.5876 111.234 57.3643 110.824H57.2549V112H55.8398ZM57.2822 108.281C57.2868 109.061 57.4668 109.676 57.8223 110.127C58.1823 110.578 58.6722 110.804 59.292 110.804C59.9118 110.804 60.3971 110.58 60.748 110.134C61.1035 109.683 61.2812 109.063 61.2812 108.274C61.2812 107.491 61.1035 106.875 60.748 106.429C60.3971 105.978 59.9118 105.752 59.292 105.752C58.6768 105.752 58.1891 105.98 57.8291 106.436C57.4691 106.887 57.2868 107.502 57.2822 108.281Z" fill="#2A4B71"/>
<path d="M47.4316 109.895C47.4316 109.229 47.6709 108.707 48.1494 108.329C48.6279 107.946 49.3115 107.728 50.2002 107.673L52.2168 107.557V106.914C52.2168 106.518 52.0869 106.215 51.8271 106.005C51.5674 105.791 51.1891 105.684 50.6924 105.684C50.2822 105.684 49.9404 105.757 49.667 105.902C49.3981 106.044 49.2227 106.246 49.1406 106.511H47.7188C47.7917 105.873 48.1038 105.365 48.6553 104.986C49.2113 104.604 49.9131 104.412 50.7607 104.412C51.6904 104.412 52.4082 104.633 52.9141 105.075C53.4245 105.513 53.6797 106.126 53.6797 106.914V112H52.2646V110.954H52.1484C51.9251 111.328 51.6175 111.617 51.2256 111.822C50.8382 112.023 50.4007 112.123 49.9131 112.123C49.1839 112.123 48.5869 111.92 48.1221 111.515C47.6618 111.104 47.4316 110.564 47.4316 109.895ZM49.2705 109.067C49.029 109.245 48.9082 109.498 48.9082 109.826C48.9082 110.154 49.0358 110.414 49.291 110.605C49.5462 110.792 49.8789 110.886 50.2891 110.886C50.8405 110.886 51.2985 110.731 51.6631 110.421C52.0322 110.111 52.2168 109.724 52.2168 109.259V108.637L50.3984 108.753C49.888 108.785 49.512 108.89 49.2705 109.067Z" fill="#2A4B71"/>
<path d="M42.3047 112V104.556H43.7197V105.697H43.8291C43.9339 105.328 44.1732 105.025 44.5469 104.788C44.9251 104.551 45.3558 104.433 45.8389 104.433C46.1169 104.433 46.3356 104.453 46.4951 104.494V105.943C46.3174 105.884 46.0439 105.854 45.6748 105.854C45.1143 105.854 44.6562 106.016 44.3008 106.34C43.9499 106.663 43.7744 107.085 43.7744 107.604V112H42.3047Z" fill="#2A4B71"/>
<path d="M31.9824 112L35.5439 102.136H37.1914L40.7529 112H39.126L38.2236 109.382H34.4639L33.5547 112H31.9824ZM34.8535 108.097H37.834L36.4053 103.927H36.2891L34.8535 108.097Z" fill="#2A4B71"/>
<path d="M19.623 114.502V104.46H21.5508V105.697H21.6738C21.8789 105.273 22.1842 104.941 22.5898 104.699C22.9954 104.458 23.458 104.337 23.9775 104.337C24.9346 104.337 25.6865 104.681 26.2334 105.369C26.7803 106.057 27.0537 107.01 27.0537 108.227C27.0537 109.439 26.7826 110.391 26.2402 111.084C25.6979 111.772 24.9551 112.116 24.0117 112.116C23.474 112.116 23.0068 112.005 22.6104 111.781C22.2139 111.558 21.9222 111.246 21.7354 110.845H21.6123V114.502H19.623ZM22.0498 106.606C21.7445 107.003 21.5918 107.545 21.5918 108.233C21.5918 108.922 21.7445 109.464 22.0498 109.86C22.3551 110.257 22.7721 110.455 23.3008 110.455C23.8385 110.455 24.2578 110.259 24.5586 109.867C24.8594 109.471 25.0098 108.924 25.0098 108.227C25.0098 107.534 24.8571 106.992 24.5518 106.6C24.251 106.203 23.8363 106.005 23.3076 106.005C22.779 106.005 22.3597 106.205 22.0498 106.606Z" fill="#2A4B71"/>
<path d="M10.5723 108.227C10.5723 107.005 10.9027 106.046 11.5635 105.349C12.2288 104.647 13.1357 104.296 14.2842 104.296C15.4326 104.296 16.3372 104.647 16.998 105.349C17.6634 106.046 17.9961 107.005 17.9961 108.227C17.9961 109.457 17.6657 110.421 17.0049 111.118C16.3486 111.815 15.4417 112.164 14.2842 112.164C13.1266 112.164 12.2174 111.815 11.5566 111.118C10.9004 110.421 10.5723 109.457 10.5723 108.227ZM12.6162 108.227C12.6162 108.96 12.7598 109.53 13.0469 109.936C13.3385 110.337 13.751 110.537 14.2842 110.537C14.8128 110.537 15.223 110.337 15.5146 109.936C15.8063 109.53 15.9521 108.96 15.9521 108.227C15.9521 107.502 15.804 106.937 15.5078 106.531C15.2161 106.126 14.8083 105.923 14.2842 105.923C13.7555 105.923 13.3454 106.126 13.0537 106.531C12.762 106.937 12.6162 107.502 12.6162 108.227Z" fill="#2A4B71"/>
<path d="M2.62891 103.899V102.136H10.6133V103.899H7.65332V112H5.58887V103.899H2.62891Z" fill="#2A4B71"/>
</svg>
