<svg width="81" height="122" viewBox="0 0 81 122" fill="none" xmlns="http://www.w3.org/2000/svg">
<path d="M21.9425 9.22577C40.4019 6.5778 60.2041 3.75132 80.2382 0.869141C77.7753 18.2175 72.106 35.1191 63.7471 50.8809C49.4823 36.679 35.3225 22.5528 21.9425 9.22577ZM72.94 8.1597C60.4866 10.1212 48.3433 12.0514 36.2512 13.9549C44.9066 22.7711 53.5621 31.5873 62.6942 40.9371L72.94 8.1597Z" fill="black" fill-opacity="0.04"/>
<path d="M36.1621 79.5867C35.2029 92.7846 34.1641 106.94 33.1288 121.265C21.475 116.931 10.6163 110.442 0.955078 102.261C12.9603 94.522 24.8973 86.8446 36.1621 79.5867ZM29.1797 115.102C29.7054 106.172 30.2059 97.4612 30.7172 88.7902C23.2948 93.4557 15.8725 98.1212 8.00803 103.036L29.1797 115.102Z" fill="black" fill-opacity="0.04"/>
</svg>
