<svg width="167" height="198" viewBox="0 0 167 198" fill="none" xmlns="http://www.w3.org/2000/svg">
<path d="M0.397461 61.8259C13.2771 42.3193 27.107 21.4055 41.0776 0.228027C55.2896 16.9737 66.4143 36.3533 74.2324 57.3053C49.0492 58.8578 24.0243 60.3747 0.397461 61.8259ZM41.8379 13.1361C33.3129 26.4417 25.0166 39.4305 16.7379 52.3491C32.2048 51.5727 47.6716 50.7963 64.0353 50.0171L41.8379 13.1361Z" fill="black" fill-opacity="0.04"/>
<path d="M166.162 155.587C165.203 168.785 164.164 182.94 163.129 197.265C151.475 192.931 140.616 186.442 130.955 178.261C142.96 170.522 154.897 162.844 166.162 155.587ZM159.18 191.102C159.706 182.172 160.206 173.461 160.717 164.79C153.295 169.456 145.873 174.121 138.008 179.036L159.18 191.102Z" fill="black" fill-opacity="0.04"/>
</svg>
