<svg width="186" height="170" viewBox="0 0 186 170" fill="none" xmlns="http://www.w3.org/2000/svg">
<path fill-rule="evenodd" clip-rule="evenodd" d="M-0.000457764 38.5207C-0.000457764 17.2463 17.2458 0 38.5202 0C59.7946 0 77.041 17.2463 77.041 38.5207V79.3802C77.041 95.26 89.9141 108.133 105.794 108.133C121.674 108.133 134.547 121.006 134.547 136.886V138.812C134.547 155.756 120.811 169.491 103.868 169.491H77.041H60.5321H49.9995C22.3853 169.491 -0.000457764 147.105 -0.000457764 119.491L-0.000457764 38.5207Z" fill="#91CAFF"/>
<path fill-rule="evenodd" clip-rule="evenodd" d="M85.0207 50C85.0207 22.3858 107.896 0 135.51 0C163.125 0 186 22.3858 186 50V74.2899V100.429V114.462C186 126.01 176.638 135.373 165.089 135.373H161.649C152 135.373 144.178 127.55 144.178 117.901C144.178 108.251 136.355 100.429 126.706 100.429H114.599C98.2634 100.429 85.0207 87.1863 85.0207 70.8506L85.0207 50Z" fill="#91CAFF"/>
</svg>
